<svg width="1920" height="8076" viewBox="0 0 1920 8076" fill="none" xmlns="http://www.w3.org/2000/svg">
<g clip-path="url(#clip0_1028_3706)">
<rect width="1920" height="8076" fill="white"/>
<g filter="url(#filter0_f_1028_3706)">
<path d="M533.5 7341.73C683.1 7069.33 152.833 7045.23 -131 7067.23C-131 7399.23 27 7246.23 147 7341.73C267 7437.23 -52 7678.23 27 7678.23C106 7678.23 346.5 7682.23 533.5 7341.73Z" fill="#F5DEFC" fill-opacity="0.4"/>
</g>
<g filter="url(#filter1_f_1028_3706)">
<path d="M1222.05 7338.48C1055.28 7600.72 1582.9 7658.81 1867.56 7655.07C1888.87 7323.76 1721.38 7466.3 1607.76 7363.29C1494.13 7260.29 1827.95 7040.26 1749.11 7035.19C1670.27 7030.12 1430.53 7010.69 1222.05 7338.48Z" fill="#F5DEFC" fill-opacity="0.3"/>
</g>
<g filter="url(#filter2_f_1028_3706)">
<path d="M106.475 1098.22C349.895 871.703 291.664 971.537 232.121 1049.77H340.359C378.204 1049.77 487.198 951.348 503.85 891.539C520.502 831.729 497.795 652.3 232.121 565.236C-33.5523 478.171 106.475 815.83 19.431 891.539C-67.6129 967.247 -268.193 1130.78 -257.596 1239.8C-246.999 1348.82 -197.8 1381.37 106.475 1098.22Z" fill="#FFEEC3" fill-opacity="0.5"/>
</g>
<g filter="url(#filter3_f_1028_3706)">
<path d="M1848.98 3818.5C1668.18 3812.5 1565.32 3610.33 1536.48 3510C1389.48 3697 1475.48 3797 1503.98 3818.5C1532.48 3840 1611.98 4138.5 1683.48 4260.5C1754.98 4382.5 2002.98 4203 2020.98 4188.5C2038.98 4174 2160.98 3987.5 2175.48 3944.5C2189.98 3901.5 2074.98 3826 1848.98 3818.5Z" fill="#A4FCFC" fill-opacity="0.5"/>
</g>
<g filter="url(#filter4_f_1028_3706)">
<path d="M1725.98 6855.5C1545.18 6849.5 1442.32 6647.33 1413.48 6547C1266.48 6734 1352.48 6834 1380.98 6855.5C1409.48 6877 1488.98 7175.5 1560.48 7297.5C1631.98 7419.5 1879.98 7240 1897.98 7225.5C1915.98 7211 2037.98 7024.5 2052.48 6981.5C2066.98 6938.5 1951.98 6863 1725.98 6855.5Z" fill="#A4FCFC" fill-opacity="0.5"/>
</g>
<g filter="url(#filter5_f_1028_3706)">
<ellipse cx="1603" cy="2738" rx="257" ry="212" fill="#EAB7FB" fill-opacity="0.25"/>
<path d="M1859.5 2738C1859.5 2854.72 1744.76 2949.5 1603 2949.5C1461.24 2949.5 1346.5 2854.72 1346.5 2738C1346.5 2621.28 1461.24 2526.5 1603 2526.5C1744.76 2526.5 1859.5 2621.28 1859.5 2738Z" stroke="black"/>
</g>
<g filter="url(#filter6_f_1028_3706)">
<path d="M2134.5 2333.73C2284.1 2061.33 1753.83 2037.23 1470 2059.23C1470 2391.23 1628 2238.23 1748 2333.73C1868 2429.23 1549 2670.23 1628 2670.23C1707 2670.23 1947.5 2674.23 2134.5 2333.73Z" fill="#F5DEFC"/>
</g>
<g filter="url(#filter7_f_1028_3706)">
<path d="M2040.5 5666.73C2190.1 5394.33 1659.83 5370.23 1376 5392.23C1376 5724.23 1534 5571.23 1654 5666.73C1774 5762.23 1455 6003.23 1534 6003.23C1613 6003.23 1853.5 6007.23 2040.5 5666.73Z" fill="#F5DEFC"/>
</g>
<g filter="url(#filter8_f_1028_3706)">
<path d="M379.5 6157.73C529.1 5885.33 -1.16666 5861.23 -285 5883.23C-285 6215.23 -127 6062.23 -7 6157.73C113 6253.23 -206 6494.23 -127 6494.23C-48 6494.23 192.5 6498.23 379.5 6157.73Z" fill="#F5DEFC"/>
</g>
<g filter="url(#filter9_f_1028_3706)">
<path d="M137.619 3736.76C-171.222 3771.39 114.542 4218.72 296.029 4438.05C567.409 4246.8 351.328 4205.79 360.264 4052.69C369.2 3899.58 749.958 4021.51 704.45 3956.93C658.941 3892.36 523.669 3693.47 137.619 3736.76Z" fill="#F5DEFC"/>
</g>
<g opacity="0.8" filter="url(#filter10_f_1028_3706)">
<circle cx="125.5" cy="2667.5" r="272.5" fill="#8BFCFC" fill-opacity="0.5"/>
</g>
<g opacity="0.8" filter="url(#filter11_f_1028_3706)">
<circle cx="387.5" cy="4241.5" r="272.5" fill="#8BFCFC" fill-opacity="0.5"/>
</g>
<g filter="url(#filter12_f_1028_3706)">
<path d="M1693.05 548.783C1561.24 769.149 1304.81 803.278 1283.03 807.348C1307.05 960.781 1450.29 1189.14 1831.07 875.113C2307.04 482.578 1824.87 328.417 1693.05 548.783Z" fill="#CB49F4" fill-opacity="0.5"/>
</g>
<g opacity="0.8" filter="url(#filter13_f_1028_3706)">
<circle cx="1738.5" cy="396.5" r="272.5" fill="#8BFCFC" fill-opacity="0.25"/>
</g>
<g filter="url(#filter14_f_1028_3706)">
<ellipse cx="175" cy="1172" rx="257" ry="212" fill="#EAB7FB" fill-opacity="0.25"/>
<path d="M431.5 1172C431.5 1288.72 316.755 1383.5 175 1383.5C33.2446 1383.5 -81.5 1288.72 -81.5 1172C-81.5 1055.28 33.2446 960.5 175 960.5C316.755 960.5 431.5 1055.28 431.5 1172Z" stroke="black"/>
</g>
<g filter="url(#filter15_f_1028_3706)">
<ellipse cx="485" cy="1010" rx="257" ry="212" fill="#C0EEFC" fill-opacity="0.5"/>
<path d="M741.5 1010C741.5 1126.72 626.755 1221.5 485 1221.5C343.245 1221.5 228.5 1126.72 228.5 1010C228.5 893.278 343.245 798.5 485 798.5C626.755 798.5 741.5 893.278 741.5 1010Z" stroke="black"/>
</g>
<g opacity="0.8" filter="url(#filter16_f_1028_3706)">
<ellipse cx="1666.5" cy="4222" rx="147.5" ry="112" fill="#FFF6B8" fill-opacity="0.5"/>
</g>
<g opacity="0.8" filter="url(#filter17_f_1028_3706)">
<ellipse cx="1693.5" cy="5853" rx="147.5" ry="112" fill="#FFF6B8" fill-opacity="0.5"/>
</g>
</g>
<defs>
<filter id="filter0_f_1028_3706" x="-271" y="6921" width="970.587" height="897.234" filterUnits="userSpaceOnUse" color-interpolation-filters="sRGB">
<feFlood flood-opacity="0" result="BackgroundImageFix"/>
<feBlend mode="normal" in="SourceGraphic" in2="BackgroundImageFix" result="shape"/>
<feGaussianBlur stdDeviation="70" result="effect1_foregroundBlur_1028_3706"/>
</filter>
<filter id="filter1_f_1028_3706" x="1050.15" y="6893.13" width="959.261" height="902.106" filterUnits="userSpaceOnUse" color-interpolation-filters="sRGB">
<feFlood flood-opacity="0" result="BackgroundImageFix"/>
<feBlend mode="normal" in="SourceGraphic" in2="BackgroundImageFix" result="shape"/>
<feGaussianBlur stdDeviation="70" result="effect1_foregroundBlur_1028_3706"/>
</filter>
<filter id="filter2_f_1028_3706" x="-398" y="411" width="1046" height="1048" filterUnits="userSpaceOnUse" color-interpolation-filters="sRGB">
<feFlood flood-opacity="0" result="BackgroundImageFix"/>
<feBlend mode="normal" in="SourceGraphic" in2="BackgroundImageFix" result="shape"/>
<feGaussianBlur stdDeviation="70" result="effect1_foregroundBlur_1028_3706"/>
</filter>
<filter id="filter3_f_1028_3706" x="1313" y="3370" width="1003.7" height="1072.76" filterUnits="userSpaceOnUse" color-interpolation-filters="sRGB">
<feFlood flood-opacity="0" result="BackgroundImageFix"/>
<feBlend mode="normal" in="SourceGraphic" in2="BackgroundImageFix" result="shape"/>
<feGaussianBlur stdDeviation="70" result="effect1_foregroundBlur_1028_3706"/>
</filter>
<filter id="filter4_f_1028_3706" x="1190" y="6407" width="1003.7" height="1072.76" filterUnits="userSpaceOnUse" color-interpolation-filters="sRGB">
<feFlood flood-opacity="0" result="BackgroundImageFix"/>
<feBlend mode="normal" in="SourceGraphic" in2="BackgroundImageFix" result="shape"/>
<feGaussianBlur stdDeviation="70" result="effect1_foregroundBlur_1028_3706"/>
</filter>
<filter id="filter5_f_1028_3706" x="1206" y="2386" width="794" height="704" filterUnits="userSpaceOnUse" color-interpolation-filters="sRGB">
<feFlood flood-opacity="0" result="BackgroundImageFix"/>
<feBlend mode="normal" in="SourceGraphic" in2="BackgroundImageFix" result="shape"/>
<feGaussianBlur stdDeviation="70" result="effect1_foregroundBlur_1028_3706"/>
</filter>
<filter id="filter6_f_1028_3706" x="1330" y="1913" width="970.587" height="897.234" filterUnits="userSpaceOnUse" color-interpolation-filters="sRGB">
<feFlood flood-opacity="0" result="BackgroundImageFix"/>
<feBlend mode="normal" in="SourceGraphic" in2="BackgroundImageFix" result="shape"/>
<feGaussianBlur stdDeviation="70" result="effect1_foregroundBlur_1028_3706"/>
</filter>
<filter id="filter7_f_1028_3706" x="1236" y="5246" width="970.587" height="897.234" filterUnits="userSpaceOnUse" color-interpolation-filters="sRGB">
<feFlood flood-opacity="0" result="BackgroundImageFix"/>
<feBlend mode="normal" in="SourceGraphic" in2="BackgroundImageFix" result="shape"/>
<feGaussianBlur stdDeviation="70" result="effect1_foregroundBlur_1028_3706"/>
</filter>
<filter id="filter8_f_1028_3706" x="-425" y="5737" width="970.587" height="897.234" filterUnits="userSpaceOnUse" color-interpolation-filters="sRGB">
<feFlood flood-opacity="0" result="BackgroundImageFix"/>
<feBlend mode="normal" in="SourceGraphic" in2="BackgroundImageFix" result="shape"/>
<feGaussianBlur stdDeviation="70" result="effect1_foregroundBlur_1028_3706"/>
</filter>
<filter id="filter9_f_1028_3706" x="-139.106" y="3590.65" width="987.331" height="987.402" filterUnits="userSpaceOnUse" color-interpolation-filters="sRGB">
<feFlood flood-opacity="0" result="BackgroundImageFix"/>
<feBlend mode="normal" in="SourceGraphic" in2="BackgroundImageFix" result="shape"/>
<feGaussianBlur stdDeviation="70" result="effect1_foregroundBlur_1028_3706"/>
</filter>
<filter id="filter10_f_1028_3706" x="-287" y="2255" width="825" height="825" filterUnits="userSpaceOnUse" color-interpolation-filters="sRGB">
<feFlood flood-opacity="0" result="BackgroundImageFix"/>
<feBlend mode="normal" in="SourceGraphic" in2="BackgroundImageFix" result="shape"/>
<feGaussianBlur stdDeviation="70" result="effect1_foregroundBlur_1028_3706"/>
</filter>
<filter id="filter11_f_1028_3706" x="-25" y="3829" width="825" height="825" filterUnits="userSpaceOnUse" color-interpolation-filters="sRGB">
<feFlood flood-opacity="0" result="BackgroundImageFix"/>
<feBlend mode="normal" in="SourceGraphic" in2="BackgroundImageFix" result="shape"/>
<feGaussianBlur stdDeviation="70" result="effect1_foregroundBlur_1028_3706"/>
</filter>
<filter id="filter12_f_1028_3706" x="966.032" y="130.759" width="1387.52" height="1218.45" filterUnits="userSpaceOnUse" color-interpolation-filters="sRGB">
<feFlood flood-opacity="0" result="BackgroundImageFix"/>
<feBlend mode="normal" in="SourceGraphic" in2="BackgroundImageFix" result="shape"/>
<feGaussianBlur stdDeviation="158.5" result="effect1_foregroundBlur_1028_3706"/>
</filter>
<filter id="filter13_f_1028_3706" x="1326" y="-16" width="825" height="825" filterUnits="userSpaceOnUse" color-interpolation-filters="sRGB">
<feFlood flood-opacity="0" result="BackgroundImageFix"/>
<feBlend mode="normal" in="SourceGraphic" in2="BackgroundImageFix" result="shape"/>
<feGaussianBlur stdDeviation="70" result="effect1_foregroundBlur_1028_3706"/>
</filter>
<filter id="filter14_f_1028_3706" x="-222" y="820" width="794" height="704" filterUnits="userSpaceOnUse" color-interpolation-filters="sRGB">
<feFlood flood-opacity="0" result="BackgroundImageFix"/>
<feBlend mode="normal" in="SourceGraphic" in2="BackgroundImageFix" result="shape"/>
<feGaussianBlur stdDeviation="70" result="effect1_foregroundBlur_1028_3706"/>
</filter>
<filter id="filter15_f_1028_3706" x="88" y="658" width="794" height="704" filterUnits="userSpaceOnUse" color-interpolation-filters="sRGB">
<feFlood flood-opacity="0" result="BackgroundImageFix"/>
<feBlend mode="normal" in="SourceGraphic" in2="BackgroundImageFix" result="shape"/>
<feGaussianBlur stdDeviation="70" result="effect1_foregroundBlur_1028_3706"/>
</filter>
<filter id="filter16_f_1028_3706" x="1379" y="3970" width="575" height="504" filterUnits="userSpaceOnUse" color-interpolation-filters="sRGB">
<feFlood flood-opacity="0" result="BackgroundImageFix"/>
<feBlend mode="normal" in="SourceGraphic" in2="BackgroundImageFix" result="shape"/>
<feGaussianBlur stdDeviation="70" result="effect1_foregroundBlur_1028_3706"/>
</filter>
<filter id="filter17_f_1028_3706" x="1406" y="5601" width="575" height="504" filterUnits="userSpaceOnUse" color-interpolation-filters="sRGB">
<feFlood flood-opacity="0" result="BackgroundImageFix"/>
<feBlend mode="normal" in="SourceGraphic" in2="BackgroundImageFix" result="shape"/>
<feGaussianBlur stdDeviation="70" result="effect1_foregroundBlur_1028_3706"/>
</filter>
<clipPath id="clip0_1028_3706">
<rect width="1920" height="8076" fill="white"/>
</clipPath>
</defs>
</svg>
