<svg width="676" height="665" viewBox="0 0 676 665" fill="none" xmlns="http://www.w3.org/2000/svg">
<rect width="676" height="665" fill="white"/>
<path d="M505.301 322.5C505.301 229.656 430.026 154 337.65 154C245.275 154 170 229.656 170 322.5C170 371.365 190.956 415.343 224.151 446.179C224.151 446.347 224.151 446.347 223.983 446.516C225.66 448.201 227.672 449.549 229.348 451.065C230.354 451.908 231.192 452.75 232.198 453.424C235.216 455.952 238.569 458.311 241.754 460.67C242.928 461.512 243.934 462.186 245.107 463.029C248.293 465.219 251.646 467.241 255.166 469.095C256.34 469.769 257.681 470.611 258.855 471.285C262.208 473.139 265.728 474.824 269.417 476.34C270.758 477.014 272.099 477.688 273.44 478.194C277.129 479.71 280.817 481.058 284.505 482.238C285.846 482.743 287.188 483.249 288.529 483.586C292.552 484.765 296.576 485.776 300.6 486.787C301.773 487.124 302.947 487.461 304.288 487.63C308.982 488.641 313.676 489.315 318.538 489.82C319.209 489.82 319.879 489.989 320.55 490.157C326.25 490.663 331.95 491 337.65 491C343.351 491 349.051 490.663 354.583 490.157C355.254 490.157 355.924 489.989 356.595 489.82C361.457 489.315 366.151 488.641 370.845 487.63C372.019 487.461 373.192 486.956 374.533 486.787C378.557 485.776 382.748 484.934 386.604 483.586C387.946 483.08 389.287 482.575 390.628 482.238C394.316 480.89 398.172 479.71 401.693 478.194C403.034 477.688 404.375 477.014 405.716 476.34C409.237 474.824 412.758 473.139 416.278 471.285C417.62 470.611 418.793 469.769 419.967 469.095C423.32 467.073 426.673 465.219 430.026 463.029C431.199 462.355 432.205 461.512 433.379 460.67C436.732 458.311 439.917 455.952 442.935 453.424C443.941 452.582 444.779 451.739 445.785 451.065C447.629 449.549 449.473 448.032 451.15 446.516C451.15 446.347 451.15 446.347 450.982 446.179C484.345 415.343 505.301 371.365 505.301 322.5ZM420.47 406.244C375.036 375.577 300.6 375.577 254.831 406.244C247.454 411.131 241.419 416.86 236.39 423.094C210.907 397.145 195.148 361.592 195.148 322.5C195.148 243.473 259.022 179.275 337.65 179.275C416.278 179.275 480.153 243.473 480.153 322.5C480.153 361.592 464.394 397.145 438.911 423.094C434.049 416.86 427.846 411.131 420.47 406.244Z" fill="black"/>
<path d="M337.65 237.065C302.947 237.065 274.781 265.373 274.781 300.253C274.781 334.459 301.438 362.261 336.812 363.272H338.321H339.494H339.83C373.695 362.093 400.351 334.459 400.519 300.253C400.519 265.373 372.354 237.065 337.65 237.065Z" fill="#292D32"/>
</svg>
