<svg width="1026" height="1026" viewBox="0 0 1026 1026" fill="none" xmlns="http://www.w3.org/2000/svg">
<rect width="1026" height="1026" fill="white"/>
<path d="M954.583 512.748C954.583 267.912 756.199 68.3999 512.749 68.3999C269.298 68.3999 70.915 267.912 70.915 512.748C70.915 641.61 126.144 757.585 213.627 838.9C213.627 839.345 213.627 839.345 213.186 839.789C217.604 844.232 222.906 847.787 227.324 851.786C229.975 854.008 232.184 856.23 234.835 858.007C242.788 864.672 251.625 870.893 260.02 877.114C263.113 879.336 265.764 881.113 268.857 883.335C277.251 889.112 286.088 894.444 295.367 899.332C298.459 901.109 301.994 903.331 305.087 905.108C313.924 909.996 323.202 914.439 332.922 918.439C336.457 920.216 339.992 921.993 343.526 923.326C353.247 927.326 362.967 930.88 372.688 933.991C376.222 935.324 379.757 936.657 383.292 937.546C393.896 940.656 404.5 943.322 415.104 945.988C418.196 946.877 421.289 947.766 424.824 948.21C437.195 950.876 449.567 952.654 462.38 953.987C464.147 953.987 465.914 954.431 467.682 954.875C482.704 956.208 497.727 957.097 512.749 957.097C527.771 957.097 542.794 956.208 557.374 954.875C559.141 954.875 560.909 954.431 562.676 953.987C575.489 952.654 587.861 950.876 600.232 948.21C603.325 947.766 606.418 946.433 609.952 945.988C620.556 943.322 631.602 941.1 641.764 937.546C645.299 936.213 648.834 934.88 652.368 933.991C662.089 930.436 672.251 927.326 681.529 923.326C685.064 921.993 688.599 920.216 692.133 918.439C701.412 914.439 710.69 909.996 719.969 905.108C723.504 903.331 726.596 901.109 729.689 899.332C738.526 893.999 747.363 889.112 756.199 883.335C759.292 881.558 761.943 879.336 765.036 877.114C773.873 870.893 782.268 864.672 790.221 858.007C792.872 855.786 795.081 853.564 797.732 851.786C802.592 847.787 807.452 843.788 811.87 839.789C811.87 839.345 811.87 839.345 811.429 838.9C899.353 757.585 954.583 641.61 954.583 512.748ZM731.015 733.59C611.278 652.718 415.104 652.718 294.483 733.59C275.042 746.476 259.136 761.584 245.881 778.025C178.722 709.595 137.19 615.837 137.19 512.748C137.19 304.349 305.529 135.052 512.749 135.052C719.969 135.052 888.308 304.349 888.308 512.748C888.308 615.837 846.775 709.595 779.617 778.025C766.803 761.584 750.455 746.476 731.015 733.59Z" fill="black"/>
<path d="M512.749 287.45C421.29 287.45 347.062 362.1 347.062 454.081C347.062 544.284 417.313 617.601 510.54 620.267H514.517H517.609H518.493C607.743 617.157 677.995 544.284 678.437 454.081C678.437 362.1 604.209 287.45 512.749 287.45Z" fill="#292D32"/>
</svg>
